<svg width="41" height="41" fill="none" xmlns="http://www.w3.org/2000/svg"><g clip-path="url('#clip0_19_146')"><path d="M.57 2.937A2.935 2.935 0 0 1 3.502 0h34.08a2.935 2.935 0 0 1 2.934 2.937v35.126A2.935 2.935 0 0 1 37.584 41H3.503a2.935 2.935 0 0 1-2.934-2.937V2.937Zm12.34 31.385V15.808H6.917v18.514h5.995ZM9.916 13.28c2.09 0 3.39-1.42 3.39-3.198-.037-1.817-1.298-3.198-3.35-3.198-2.053 0-3.393 1.384-3.393 3.198 0 1.778 1.3 3.198 3.313 3.198h.04Zm12.254 21.043v-10.34c0-.553.04-1.107.2-1.501.431-1.105 1.418-2.25 3.076-2.25 2.17 0 3.036 1.696 3.036 4.187v9.904h5.994V23.703c0-5.689-2.956-8.333-6.9-8.333-3.182 0-4.607 1.794-5.406 3.057v.064h-.04l.04-.064v-2.619h-5.992c.075 1.737 0 18.514 0 18.514h5.992Z" fill="#000"/></g><defs><clipPath id="clip0_19_146"><path fill="#fff" transform="translate(.57)" d="M0 0h39.948v41H0z"/></clipPath></defs></svg>