<svg width="40" height="41" fill="none" xmlns="http://www.w3.org/2000/svg"><g clip-path="url('#clip0_9_72')"><path d="M0 2.937A2.937 2.937 0 0 1 2.938 0h34.124A2.937 2.937 0 0 1 40 2.937v35.126A2.937 2.937 0 0 1 37.062 41H2.938A2.937 2.937 0 0 1 0 38.063V2.937Zm12.357 31.385V15.808H6.356v18.514h6.002Zm-3-21.043c2.093 0 3.396-1.42 3.396-3.198-.038-1.817-1.3-3.198-3.355-3.198C7.343 6.883 6 8.267 6 10.08c0 1.778 1.303 3.198 3.318 3.198h.04Zm12.27 21.043v-10.34c0-.553.04-1.107.2-1.501.433-1.105 1.42-2.25 3.08-2.25 2.173 0 3.04 1.696 3.04 4.187v9.904h6.003V23.703c0-5.689-2.96-8.333-6.91-8.333-3.185 0-4.613 1.794-5.412 3.057v.064h-.04l.04-.064v-2.619h-6c.075 1.737 0 18.514 0 18.514h6Z" fill="#000"/></g><defs><clipPath id="clip0_9_72"><path fill="#fff" d="M0 0h40v41H0z"/></clipPath></defs></svg>